<svg xmlns="http://www.w3.org/2000/svg" width="32" height="32"><g fill="none" fill-rule="evenodd"><path fill="#9B9B9B" d="M26 26v1a2 2 0 01-2 2H8a2 2 0 01-2-2v-1h2v1h16v-1h2zM21.5 3L26 7.5V11h-2V9h-3a1 1 0 01-1-1V5H8v6H6V5a2 2 0 012-2h13.5z"/><path fill="#CF5602" d="M4 13h24a2 2 0 012 2v7a2 2 0 01-2 2H4a2 2 0 01-2-2v-7a2 2 0 012-2z"/><path fill="#FFF" fill-rule="nonzero" d="M9 15c1.45 0 2.5 1.045 2.5 2.5 0 1.436-1.016 2.5-2.5 2.5H7.5v2H6v-7zm-.5 1.5h-1v2h1c.845 0 1.5-.2 1.5-1 0-.82-.65-1-1.5-1zM16 15c1.45 0 2.5 1.045 2.5 2.5 0 1.436-1.016 2.5-2.5 2.5h-1.5v2H13v-7zm-.5 1.5h-1v2h1c.845 0 1.5-.2 1.5-1 0-.82-.65-1-1.5-1zm8.263 5.5v-5.5H26V15h-6v1.5h2.258V22z"/></g></svg>