<svg xmlns="http://www.w3.org/2000/svg" width="32" height="32"><g fill="none" fill-rule="evenodd"><path fill="#9B9B9B" d="M26 26v1a2 2 0 01-2 2H8a2 2 0 01-2-2v-1h2v1h16v-1h2zM21.5 3L26 7.5V11h-2V9h-3a1 1 0 01-1-1V5H8v6H6V5a2 2 0 012-2h13.5z"/><path fill="#8C74CB" d="M4 13h24a2 2 0 012 2v7a2 2 0 01-2 2H4a2 2 0 01-2-2v-7a2 2 0 012-2z"/><path fill="#FFF" fill-rule="nonzero" d="M16.503 14.799c2.141 0 3.497 1.42 3.497 3.701 0 2.28-1.35 3.706-3.497 3.706C14.34 22.206 13 20.78 13 18.5c0-2.285 1.36-3.701 3.503-3.701zM6.738 15L8.5 19.5l1.767-4.5H12v7h-1.5v-4.5l-1.5 4H8l-1.5-4V22H5v-7h1.738zM21.5 15l2 5.5 2-5.5h1.514L24.5 22h-2L20 15h1.5zm-5 1c-1.5 0-2 1.001-2 2.5 0 1.494.5 2.5 2 2.5s2-1.006 2-2.5c0-1.499-.5-2.5-2-2.5z"/></g></svg>