<svg xmlns="http://www.w3.org/2000/svg" width="32" height="32"><g fill="none" fill-rule="evenodd"><path fill="#9B9B9B" d="M26 26v1a2 2 0 01-2 2H8a2 2 0 01-2-2v-1h2v1h16v-1h2zM21.5 3L26 7.5V11h-2V9h-3a1 1 0 01-1-1V5H8v6H6V5a2 2 0 012-2h13.5z"/><path fill="#0A8D6B" d="M4 13h24a2 2 0 012 2v7a2 2 0 01-2 2H4a2 2 0 01-2-2v-7a2 2 0 012-2z"/><path fill="#FFF" fill-rule="nonzero" d="M8 22.18c1.494 0 2.5-.803 2.5-2.302V15H9.025v4.868C9.025 20.576 8.605 21 8 21c-.566 0-1.064-.429-1.074-1H5.5c0 1.357 1.055 2.18 2.5 2.18zM15.5 15c1.45 0 2.5 1.045 2.5 2.5 0 1.436-1.016 2.5-2.5 2.5H14v2h-1.5v-7zm-.5 1.5h-1v2h1c.845 0 1.5-.2 1.5-1 0-.82-.65-1-1.5-1zm7.879 5.71c1.924 0 3.125-1.17 3.125-3.041v-.894h-2.96v1.075h1.53l-.006.131c-.029.88-.698 1.47-1.665 1.47-1.162 0-1.894-.932-1.894-2.466 0-1.504.698-2.426 1.836-2.426.82 0 1.41.42 1.63 1.157h1.465c-.205-1.46-1.43-2.412-3.095-2.412-2.051 0-3.345 1.43-3.345 3.696 0 2.3 1.284 3.71 3.379 3.71z"/></g></svg>