<svg xmlns="http://www.w3.org/2000/svg" width="24" height="24"><path fill="#C5C5C5" fill-rule="evenodd" d="M3.952 1.477a2.775 2.775 0 013.746.593l.112.15c.211.304.4.584.96 1.428L9.81 5.21c1.051 1.401 1.13 2.836.157 4.076l-.215.26-.325.424.054.08c.3.428.834 1.053 1.596 1.856a23.503 23.503 0 002.091 1.965l.27.213.493.365.01-.004c.134-.07.275-.165.43-.293l.118-.102c1.143-.877 2.3-.977 3.502-.313l.39.235c.516.283 2.624 1.597 3.335 2.08.322.231.592.517.802.847.29.458.454.968.479 1.487v.26l-.024.191-.034.163-.033.119a8.363 8.363 0 01-1.154 2.119 6.987 6.987 0 01-.655.751c-.71.705-1.63 1.014-2.872 1.014-1.645 0-3.087-.485-5.508-1.815-1.8-.99-3.806-2.557-5.557-4.325a1 1 0 111.42-1.408c1.624 1.639 3.48 3.09 5.1 3.98 2.152 1.183 3.298 1.568 4.545 1.568.752 0 1.167-.14 1.464-.434.162-.16.317-.34.466-.537a6.25 6.25 0 00.653-1.08l.101-.218.089-.221-.002-.081a1.019 1.019 0 00-.102-.347l-.064-.114a1.047 1.047 0 00-.26-.28l-.423-.279a95.482 95.482 0 00-2.52-1.567l-.303-.175-.198-.123c-.558-.344-.875-.328-1.347.029-.606.563-1.452 1.01-2.07.917-.742-.112-2.296-1.361-3.876-2.995l-.207-.215c-.824-.869-1.416-1.561-1.783-2.086-.323-.461-.48-.756-.48-1.11 0-.446.073-.75.29-1.081l.054-.077.551-.714.136-.164c.378-.481.353-.925-.213-1.682L6.208 3.42l-.04-.058c-.246-.353-.662-.453-1.006-.28l-1.01.644-.437.294c-.14.097-.228.165-.275.209-.328.304-.44.62-.44 1.415 0 1.157.502 2.731 1.453 4.454a1 1 0 11-1.75.967C1.6 9.07 1 7.185 1 5.645c0-1.31.301-2.16 1.079-2.882l.144-.124c.106-.087.236-.182.4-.296l.7-.463.63-.403z"/></svg>