<svg xmlns="http://www.w3.org/2000/svg" width="24" height="24"><path fill="#371396" fill-rule="evenodd" d="M15.864 3.044l.112.128.021.004c1.557.332 2.639 1.321 3.144 2.879l.068.226c.19.675.246 1.452.198 2.314-.045.806-.18 1.656-.376 2.511-.056.246-.115.482-.175.705l-.177.612-.04.126c-.339 1.018-1.826.86-1.943-.208-.188-1.728-.623-3.06-1.288-4.017l-.172-.232-.114.128c-.735.78-1.638 1.217-2.685 1.272l-.226.006c-1.586 0-2.745.188-3.277.466-.075.039-.213.344-.278 1.009a1 1 0 01-1.319.848l-.08-.033.01.046a1 1 0 01-.138.694l-.071.1c-.464.575-.623 1.004-.572 1.294.054.305.374.698 1.038 1.14a1 1 0 01.412.574c.258.97.59 1.715.98 2.237.373.496 1.034 1.108 1.977 1.816l.264.195.15.134c.304.334.534.46.693.46.15 0 .36-.118.639-.44a1 1 0 01.443-.296l.131-.033c.43-.08 1.071-.655 1.824-1.789a1 1 0 111.666 1.106c-.904 1.362-1.795 2.226-2.743 2.549l-.031.009-.074.074c-.505.481-1.064.765-1.671.813l-.184.007c-.733 0-1.407-.339-2.02-.953l-.075-.08-.227-.167c-.978-.735-1.715-1.404-2.218-2.021l-.143-.184c-.449-.598-.816-1.341-1.109-2.23l-.105-.338-.096-.07c-.77-.593-1.266-1.246-1.451-1.98l-.04-.184c-.134-.76.07-1.53.563-2.312l.07-.105-.052-.141a11.645 11.645 0 01-.56-2.723l-.034-.43c-.196-3.11 2.257-6.606 5.969-6.965 2.442-.236 4.273.221 5.392 1.45zM10 13a1 1 0 110 2 1 1 0 010-2zm4 0a1 1 0 110 2 1 1 0 010-2zm-3.336-9.414c-2.547.246-4.298 2.741-4.165 4.85.034.544.1 1.055.196 1.532l.052.236.019-.1c.175-.842.52-1.465 1.094-1.828l.148-.085c.878-.459 2.323-.693 4.203-.693.82 0 1.46-.433 2.007-1.429a1 1 0 011.488-.31 6.51 6.51 0 011.597 1.812l.114.196-.003-.078a4.475 4.475 0 00-.084-.675l-.047-.195c-.298-1.068-.912-1.6-1.99-1.735a1 1 0 01-.711-.44c-.575-.87-1.832-1.26-3.918-1.058z"/></svg>