<svg xmlns="http://www.w3.org/2000/svg" width="24" height="24"><path fill="#9B9B9B" fill-rule="evenodd" d="M10.977 1.637c1.377 0 2.663.457 3.838 1.346l.25.198.165.14.267.011c.905.065 1.822.421 2.75 1.049l.252.178.254.19c1.415 1.105 1.898 2.81 1.839 5.143l-.015.4c-.019.4-.052.817-.105 1.362l-.124 1.281c-.05.59-.062.898-.04 1.12l.008.06.018.108c.218 1.046.673 2.06 1.372 3.044a1 1 0 01-.36 1.47 16.33 16.33 0 01-6.195 1.76c-.86.068-1.398-.912-.878-1.6 1.363-1.803 1.847-3.453 1.728-5.847-.05-1.02-.385-2.031-1.014-3.041l-.18-.276-.041-.058-.03.042c-.917 1.201-1.97 1.96-3.164 2.24l-.24.049-.23.035c-1.894.238-2.813.874-3.196 2.225-.346 1.222.61 3.547 1.748 4.717.643.661.125 1.766-.794 1.695-3.49-.272-5.53-.902-6.238-2.199a1 1 0 01.035-1.017c.94-1.472 1.26-2.793 1.015-3.996-.74-3.616-.72-5.816.689-8.096 1.55-2.508 3.915-3.733 6.616-3.733zm0 2c-2.03 0-3.741.887-4.915 2.785-1.06 1.713-1.075 3.495-.43 6.644.283 1.386.064 2.821-.631 4.29l-.146.294-.098.184.081.042c.339.164.848.322 1.523.46l.26.05.209.037-.106-.207c-.653-1.313-1.023-2.799-.841-4.03l.044-.243.055-.222c.627-2.214 2.247-3.335 4.87-3.665 1.058-.133 2.049-.955 2.966-2.582a1 1 0 011.617-.174c1.599 1.79 2.466 3.68 2.564 5.65.092 1.853-.137 3.394-.761 4.845l-.14.31-.042.082.099-.02c.565-.134 1.12-.301 1.667-.503l.408-.157.206-.088-.18-.332a9.79 9.79 0 01-.68-1.669l-.117-.428-.083-.36c-.092-.441-.108-.777-.046-1.568l.019-.228.155-1.612.038-.443c.01-.138.02-.267.027-.392l.01-.185.014-.36c.044-1.762-.277-2.897-1.07-3.515-.907-.707-1.701-1.025-2.394-1.005l-.283.016a1 1 0 01-.67-.276c-1.012-.964-2.066-1.425-3.199-1.425zM10 13a1 1 0 110 2 1 1 0 010-2zm4 0a1 1 0 110 2 1 1 0 010-2z"/></svg>