<svg xmlns="http://www.w3.org/2000/svg" width="24" height="24"><path fill="#70B1EE" fill-rule="evenodd" d="M12 2a4 4 0 014 4v3a4 4 0 01-3.8 3.995L12 13c-2.35 0-4.784 1.455-7.3 4.463a3 3 0 00-.693 1.715l-.007.21v.112a.5.5 0 00.41.492L4.5 20H19a1 1 0 00.993-.883L20 19a1 1 0 012 0 3 3 0 01-2.824 2.995L19 22H4.5a2.5 2.5 0 01-2.495-2.336L2 19.5v-.112a5 5 0 011.165-3.208c1.896-2.266 3.827-3.803 5.796-4.582A3.972 3.972 0 018 9V6a4 4 0 014-4zm0 2a2 2 0 00-1.995 1.85L10 6v3a2 2 0 003.995.15L14 9V6a2 2 0 00-2-2z"/></svg>