<svg height="24" viewBox="-53 0 512 512" width="24" xmlns="http://www.w3.org/2000/svg"><path fill="#70B1EE" d="M321.14 115.14L303.286 133l17.856 17.86c7.812 7.808 7.812 20.472 0 28.28A19.929 19.929 0 01307 185a19.937 19.937 0 01-14.145-5.86L275 161.286l-17.86 17.856A19.929 19.929 0 01243 185a19.937 19.937 0 01-14.145-5.86c-7.808-7.808-7.808-20.472 0-28.28l17.86-17.86-17.86-17.86c-7.808-7.808-7.808-20.472 0-28.28 7.813-7.813 20.477-7.813 28.286 0L275 104.714l17.855-17.856c7.813-7.812 20.477-7.812 28.286 0 7.808 7.809 7.812 20.473 0 28.282zM187.134 94.849c-7.817-7.805-20.48-7.797-28.285.02l-36.559 36.612-14.93-15.402c-7.687-7.93-20.347-8.129-28.28-.441-7.93 7.687-8.13 20.351-.438 28.281l29.078 30a19.988 19.988 0 0014.21 6.082h.15c5.308 0 10.398-2.11 14.151-5.871l50.922-51c7.805-7.813 7.797-20.477-.02-28.281zM327 253.058c0-11.046-8.953-20-20-20h-64c-11.047 0-20 8.954-20 20s8.953 20 20 20h64c11.047 0 20-8.953 20-20zM164 233h-64c-11.047 0-20 8.953-20 20s8.953 20 20 20h64c11.047 0 20-8.953 20-20s-8.953-20-20-20zm79 74c-11.047 0-20 8.953-20 20s8.953 20 20 20h44c11.047 0 20-8.953 20-20s-8.953-20-20-20zm-79-.059h-64c-11.047 0-20 8.954-20 20s8.953 20 20 20h64c11.047 0 20-8.953 20-20s-8.953-20-20-20zM164 380h-64c-11.047 0-20 8.953-20 20s8.953 20 20 20h64c11.047 0 20-8.953 20-20s-8.953-20-20-20zm221.887-28c11.047 0 20-8.953 20-20V80c0-44.113-35.887-80-80-80H80C35.887 0 0 35.887 0 80v352c0 44.113 35.887 80 80 80h245.89c44.11 0 80-35.887 80-80 0-11.047-8.956-20-20-20-11.046 0-20 8.953-20 20 0 22.055-17.945 40-40 40H80c-22.055 0-40-17.945-40-40V80c0-22.055 17.945-40 40-40h245.89c22.055 0 40 17.945 40 40v252c-.003 11.047 8.954 20 19.997 20zm0 0"/></svg>